<?xml version="1.0" encoding="UTF-8"?><svg xmlns="http://www.w3.org/2000/svg" viewBox="0 0 811.76 1007.88"><g id="a"/><g id="b"><g id="c"><g><path d="M808.15,71.64c-19.5-73.56-107.84-95.92-162.92-41.34-38.59,38.21-76.69,76.9-115.07,115.33-12.26,12.27-24.73,24.32-37,36.38-38.23-32.82-71-36.27-97.78-11.03-27.06,25.49-25.26,57.56,6.05,98.41-2.71,2.84-5.46,5.84-8.33,8.72-83.54,83.54-167.42,166.72-250.24,250.97-12.11,12.31-21,28.82-28.06,44.84-10.67,24.27-17.99,49.99-27.63,74.73-3.04,7.82-8.87,14.57-13.55,21.72-5.95,9.07-14.3,17.31-17.6,27.24-6.86,20.59,4.04,42.83,23.79,54.01,17.99,10.19,39.64,6.84,55.7-7.93,7.13-6.58,14.29-14.31,22.94-17.81,26.36-10.69,53.92-18.43,80.05-29.6,15.4-6.6,31.12-15.33,42.96-26.91,66-64.51,130.91-130.13,196.07-195.5,21.39-21.45,42.44-43.23,63.44-64.66,41.95,31.32,72.03,33.68,97.65,8.64,10.75-10.51,16.73-23.5,18.27-38.28,2.64-25.26-9.18-44.49-27.85-60.8,3.62-3.79,6.4-6.83,9.3-9.74,48.06-48.1,96.31-96.03,144.16-144.34,25.79-26.03,35.11-57.44,25.66-93.06ZM427.83,483.63c-52.3,52.41-104.86,104.57-156.81,157.34-14.78,15.01-31.47,25.93-51.26,32.7-18.3,6.26-36.23,13.69-54.71,19.35-19.26,5.89-36.32,14.22-49.62,30.09-7.37,8.79-16.72,8.29-25.19,1.07-8.51-7.24-11.94-19.02-4.54-24.87,29.56-23.36,34.66-58.89,45.74-90.85,10.87-31.38,27.29-57.23,51.08-80.49,77.09-75.39,152.8-152.21,228.96-228.55,3.18-3.2,5.5-7.26,7.6-10.09,34.79,34.87,67.61,67.76,101.24,101.47-30.36,30.47-61.41,61.67-92.49,92.83Z"/><path d="M68.11,786.22c31.41,44.3,59.73,87.76,68.23,140.65,5.91,36.75-17.47,71.03-52.73,79.24-34.5,8.03-71.14-11.87-80.62-46.42-3.75-13.67-3.89-29.68-.9-43.6,10.32-48.08,36.64-88.52,66.02-129.87Z"/><path d="M390.7,483.38c-16.43,15.82-31.77,30.23-46.7,45.03-32.32,32.05-63.99,64.76-96.89,96.19-9.56,9.14-21.76,16.28-33.92,21.77-16.86,7.63-34.73,13.11-52.39,18.83-3.74,1.21-10.15,1.1-12.21-1.21-2.57-2.86-3.61-9.18-2.35-13.04,6.66-20.54,13.62-41.04,21.85-60.99,3.51-8.52,9.4-16.58,15.87-23.25,25.85-26.68,52.26-52.85,78.76-78.89,3.22-3.15,8.26-6.23,12.49-6.28,36.41-.45,72.83-.2,109.25-.11,1.02,0,2.02,.6,6.24,1.95Z"/></g></g></g></svg>