<?xml version="1.0" encoding="UTF-8"?><svg xmlns="http://www.w3.org/2000/svg" viewBox="0 0 1126.38 944.3"><g id="a"/><g id="b"><g id="c"><path d="M1113.1,387.98c-24.14-37.13-72.71-47.68-111.79-23.61-7.52,4.63-13.05,4.36-20.69,.78-118.07-55.33-236.28-110.34-354.45-165.44C486.67,134.67,347.22,69.54,207.59,4.78c-6.88-3.2-15.45-5.49-22.78-4.58-62.91,7.73-112.07,66.42-109.63,129.54,.4,10.24,4.21,16.89,13.9,21.4,162.33,75.52,324.58,151.23,486.74,227.11,9.66,4.52,17.88,4.16,27.06-1.12,19.71-11.34,39.64-22.32,59.94-32.54,4.42-2.23,11.62-2.55,16.08-.53,46.47,21.09,92.65,42.83,138.9,64.41,19.75,9.22,39.48,18.47,60.94,28.51-12.76,6.8-23.6,12.69-34.53,18.39-187.4,97.6-385.12,167.47-589.96,217.59-63.1,15.43-127.14,26.98-190.63,40.83-43.9,9.58-70.8,50.86-61.93,94.59,4.68,23.05,10.23,45.92,15.78,68.78,12.89,53.15,55.18,77.45,108.13,63.06,114.37-31.07,226.78-68.01,337.1-111.29,220.69-86.57,429.37-196.08,626.08-328.33,38.65-25.98,48.84-74.9,24.32-112.62Zm-425.84-77.72c-13.12-6.26-23.44-6-35.61,1.45-18,11.02-36.72,20.96-55.61,30.4-4.43,2.22-11.67,2.49-16.12,.42C425.83,271.09,271.95,199.23,117.95,127.62c-6.21-2.89-9.04-5.78-8.32-13.29,3.62-37.18,38.37-74.86,75.27-80.2,3.94-.56,8.62,.96,12.4,2.72,250.09,116.48,500.14,233.09,750.17,349.71,2.85,1.33,5.55,2.98,9.59,5.18-13.61,8.04-25.98,16.01-39.04,22.6-3.16,1.59-9-.49-12.95-2.32-72.71-33.69-145.48-67.28-217.81-101.76Zm385.36,160.61c-17.93,12.64-36.41,24.51-54.86,36.38-279.77,180.02-580.19,313.66-901.3,400.75-35.02,9.5-58.23-4.49-66.58-40.16-4.9-20.96-10.03-41.87-14.75-62.87-6.54-29.05,9.68-54.22,38.93-59.36,121.11-21.27,240.3-50.44,357.72-86.76,205.47-63.55,401.79-147.43,583.52-263.61,8.76-5.59,19.28-8.43,28.98-12.55,21.49,2.43,39.31,15.05,45.83,34.06,6.84,19.94,.34,41.55-17.49,54.12Z"/><path d="M1090.11,416.75c-6.52-19.01-24.34-31.63-45.83-34.06-9.7,4.12-20.22,6.96-28.98,12.55-181.73,116.18-378.05,200.06-583.52,263.61-117.42,36.32-236.61,65.49-357.72,86.76-29.25,5.14-45.47,30.31-38.93,59.36,4.72,21,9.85,41.91,14.75,62.87,8.35,35.67,31.56,49.66,66.58,40.16,321.11-87.09,621.53-220.73,901.3-400.75,18.45-11.87,36.93-23.74,54.86-36.38,17.83-12.57,24.33-34.18,17.49-54.12Zm-61.49,59.4c-18.29,0-33.12-14.83-33.12-33.12s14.83-33.12,33.12-33.12,33.12,14.83,33.12,33.12-14.83,33.12-33.12,33.12Z"/><path d="M957.06,391.74c-13.61,8.04-25.98,16.01-39.04,22.6-3.16,1.59-9-.49-12.95-2.32-72.71-33.69-145.48-67.28-217.81-101.76-13.12-6.26-23.44-6-35.61,1.45-18,11.02-36.72,20.96-55.61,30.4-4.43,2.22-11.67,2.49-16.12,.42C425.83,271.09,271.95,199.23,117.95,127.62c-6.21-2.89-9.04-5.78-8.32-13.29,3.62-37.18,38.37-74.86,75.27-80.2,3.94-.56,8.62,.96,12.4,2.72,250.09,116.48,500.14,233.09,750.17,349.71,2.85,1.33,5.55,2.98,9.59,5.18Z"/></g></g></svg>